Coordinates
version=1
nRows=11
nColumns=46
inDegrees=yes

Units are S.I. units (second, meters, Newtons, ...)
Angles are in degrees.

endheader
time	pelvis_tilt	pelvis_list	pelvis_rotation	pelvis_tx	pelvis_ty	pelvis_tz	bb_angle	bb_tx	bb_ty	bb_tz	hip_flexion_r	hip_adduction_r	hip_rotation_r	knee_angle_r	knee_angle_r_beta	ankle_angle_r	subtalar_angle_r	mtp_angle_r	crank_angle_r	hip_flexion_l	hip_adduction_l	hip_rotation_l	knee_angle_l	knee_angle_l_beta	ankle_angle_l	subtalar_angle_l	mtp_angle_l	crank_angle_l	lumbar_extension	lumbar_bending	lumbar_rotation	arm_flex_r	arm_add_r	arm_rot_r	elbow_flex_r	pro_sup_r	wrist_flex_r	wrist_dev_r	arm_flex_l	arm_add_l	arm_rot_l	elbow_flex_l	pro_sup_l	wrist_flex_l	wrist_dev_l
      7.50500000	    -22.42985789	      9.25650384	      4.03757428	      0.38861245	      1.21444889	     -0.22410213	      0.00000000	      0.50000000	      0.00000000	      0.25000000	     32.31421201	    -15.36268677	     -8.70059666	     25.80586995	      0.45039740	    -18.73055658	     -0.10417466	      0.00000000	      0.00000000	     70.16862438	     -9.19265442	     -7.07831378	    104.22373902	      1.81904740	      3.46799303	     13.96290260	      0.00000000	      0.00000000	    -58.81592267	     -5.50553295	     -2.83628891	     56.26848382	    -28.16837784	     31.27732512	     64.16020430	     48.60378043	      0.00000000	      0.00000000	     78.51052978	    -13.38595538	     67.18801961	     42.40143073	     50.16351631	      0.00000000	      0.00000000
      7.51000000	    -22.35313520	      9.03871227	      4.89524926	      0.38899902	      1.21468479	     -0.22444978	      0.00000000	      0.50000000	      0.00000000	      0.25000000	     30.96236250	    -15.64861608	    -10.05806413	     24.99238987	      0.43619949	    -19.55567278	      0.79467299	      0.00000000	      0.00000000	     71.11251799	     -8.68338100	     -6.63446731	    104.50469260	      1.82395097	      4.02138159	     14.04544535	      0.00000000	      0.00000000	    -59.00441619	     -5.07384751	     -3.14663933	     56.50680645	    -28.24563373	     31.55748146	     63.66661484	     48.55731080	      0.00000000	      0.00000000	     78.51227172	    -13.57068339	     67.13812249	     43.01794747	     50.24994684	      0.00000000	      0.00000000
      7.51500000	    -22.56416848	      9.08760308	      5.44589555	      0.38884050	      1.21458526	     -0.22367384	      0.00000000	      0.50000000	      0.00000000	      0.25000000	     30.26524630	    -15.86846727	    -10.41461271	     24.53302419	      0.42818205	    -20.19973487	      1.10044117	      0.00000000	      0.00000000	     72.17538016	     -8.42826120	     -6.64876728	    104.58853926	      1.82541437	      4.53806564	     13.98900361	      0.00000000	      0.00000000	    -58.97259288	     -5.29059600	     -3.58598088	     56.48341929	    -28.39755397	     31.55951268	     63.52368086	     48.53685743	      0.00000000	      0.00000000	     78.69811790	    -13.50665490	     67.08418791	     43.19744497	     50.26654294	      0.00000000	      0.00000000
      7.52000000	    -22.60043874	      8.84374067	      6.24759702	      0.38907249	      1.21487438	     -0.22440135	      0.00000000	      0.50000000	      0.00000000	      0.25000000	     29.24981466	    -16.11726474	    -11.71346377	     24.05838933	      0.41989811	    -21.12456490	      1.80274039	      0.00000000	      0.00000000	     73.09921961	     -7.79807825	     -6.26788302	    104.62471843	      1.82604582	      5.20621805	     14.01032595	      0.00000000	      0.00000000	    -58.97998123	     -4.69366229	     -3.84614734	     56.62164990	    -28.30973183	     31.81289637	     63.15730777	     48.50785607	      0.00000000	      0.00000000	     78.49682661	    -13.84862934	     66.91570035	     43.86993459	     50.34747908	      0.00000000	      0.00000000
      7.52500000	    -22.53659069	      8.91316416	      6.95202398	      0.38907403	      1.21577217	     -0.22404851	      0.00000000	      0.50000000	      0.00000000	      0.25000000	     28.31864089	    -16.50663060	    -12.50824310	     23.86794347	      0.41657420	    -21.73175293	      2.31901705	      0.00000000	      0.00000000	     73.66448631	     -7.17706521	     -6.27938960	    104.38273910	      1.82182248	      5.81145477	     14.12505062	      0.00000000	      0.00000000	    -59.27086149	     -4.43475383	     -5.09015147	     57.71551458	    -27.30735434	     33.29547912	     61.50123467	     48.41341430	      0.00000000	      0.00000000	     78.07626557	    -15.53369149	     65.67378411	     46.25187010	     50.51869395	      0.00000000	      0.00000000
      7.53000000	    -22.70309171	      8.78171807	      7.38997725	      0.38892094	      1.21613231	     -0.22363802	      0.00000000	      0.50000000	      0.00000000	      0.25000000	     27.87402814	    -16.54811922	    -12.78878712	     23.94045442	      0.41783975	    -22.16339505	      2.47020485	      0.00000000	      0.00000000	     74.47450645	     -6.85906808	     -6.16378642	    104.15586410	      1.81786276	      6.55715165	     13.99931923	      0.00000000	      0.00000000	    -59.27077351	     -4.49972765	     -5.27088338	     57.59037347	    -27.41516335	     33.30819066	     61.36601015	     48.39688476	      0.00000000	      0.00000000	     78.25507864	    -15.38555774	     65.59639230	     46.38145995	     50.52165656	      0.00000000	      0.00000000
      7.53500000	    -22.79829927	      8.62413518	      7.91290578	      0.38874930	      1.21680372	     -0.22352002	      0.00000000	      0.50000000	      0.00000000	      0.25000000	     27.41467838	    -16.62619967	    -13.22032210	     24.20565930	      0.42246845	    -22.48154109	      2.51743057	      0.00000000	      0.00000000	     75.13610440	     -6.36798090	     -6.00423422	    103.79084101	      1.81149191	      7.30484175	     14.20857579	      0.00000000	      0.00000000	    -59.35848420	     -4.43887207	     -5.42283058	     57.47677295	    -27.60391699	     33.27182744	     61.21346135	     48.37321473	      0.00000000	      0.00000000	     78.34183765	    -15.19431591	     65.48372423	     46.56747202	     50.52692766	      0.00000000	      0.00000000
      7.54000000	    -22.83784050	      8.39332075	      8.25535903	      0.38876323	      1.21752947	     -0.22364063	      0.00000000	      0.50000000	      0.00000000	      0.25000000	     27.08402834	    -16.59158619	    -13.43159229	     24.73526244	      0.43171177	    -22.81430161	      2.59187646	      0.00000000	      0.00000000	     75.66950532	     -6.06137273	     -5.88206464	    103.41104174	      1.80486316	      8.16956700	     14.07976209	      0.00000000	      0.00000000	    -59.48282079	     -4.36182220	     -5.44626375	     57.40976849	    -27.73681892	     33.23270570	     61.11767664	     48.35663541	      0.00000000	      0.00000000	     78.41730860	    -15.01276120	     65.35231011	     46.75785925	     50.53134356	      0.00000000	      0.00000000
      7.54500000	    -22.84327179	      8.26184066	      8.66580965	      0.38858715	      1.21881322	     -0.22366913	      0.00000000	      0.50000000	      0.00000000	      0.25000000	     26.80566057	    -16.65727317	    -13.53626146	     25.44353727	      0.44407350	    -22.90546883	      2.41196842	      0.00000000	      0.00000000	     76.01017106	     -5.62229896	     -5.83559658	    102.76318519	      1.79355593	      8.85283731	     14.15033985	      0.00000000	      0.00000000	    -59.71282441	     -4.27359673	     -5.52371655	     57.38079769	    -27.88402058	     33.16572508	     61.01459714	     48.33504587	      0.00000000	      0.00000000	     78.55257709	    -14.77675367	     65.18672128	     46.95123977	     50.53082793	      0.00000000	      0.00000000
      7.55000000	    -22.85045403	      8.21427178	      9.05515384	      0.38852731	      1.22024785	     -0.22365899	      0.00000000	      0.50000000	      0.00000000	      0.25000000	     26.68392944	    -16.85228037	    -13.72596722	     26.46051837	      0.46182317	    -22.77149887	      2.05357674	      0.00000000	      0.00000000	     76.16360781	     -5.11464451	     -5.84227238	    101.92769041	      1.77897380	      9.62798658	     14.22166152	      0.00000000	      0.00000000	    -59.98319360	     -4.32802875	     -5.65719039	     57.38128479	    -28.08971941	     33.04395333	     60.87916803	     48.30241647	      0.00000000	      0.00000000	     78.65111056	    -14.46565630	     64.94224975	     47.18830893	     50.52454173	      0.00000000	      0.00000000
      7.55500000	    -22.84503164	      8.23576108	      9.39571221	      0.38840586	      1.22182121	     -0.22376104	      0.00000000	      0.50000000	      0.00000000	      0.25000000	     26.71966590	    -17.10825537	    -13.72693763	     27.76344653	      0.48456355	    -22.53361310	      1.53278819	      0.00000000	      0.00000000	     76.15880944	     -4.61029445	     -5.96707411	    100.96063951	      1.76209557	     10.44117769	     14.33482264	      0.00000000	      0.00000000	    -60.31106131	     -4.34357608	     -5.78753942	     57.40841638	    -28.25984441	     32.87540494	     60.76906596	     48.26854063	      0.00000000	      0.00000000	     78.71223061	    -14.09731369	     64.51914531	     47.42998093	     50.49283543	      0.00000000	      0.00000000
